<svg width="275" height="63" viewBox="0 0 275 63" fill="none" xmlns="http://www.w3.org/2000/svg">
<g filter="url(#filter0_d)">
<path d="M29.5 0C15.4391 0 4 11.2345 4 25.0425C4 35.9837 11.1851 45.303 21.163 48.7033L20.9934 52.1927C20.9934 53.2915 21.9002 54.184 23.021 54.184C24.1398 54.184 25.0486 53.2921 25.0486 52.1927L24.9254 49.6733C26.4105 49.9387 27.9381 50.085 29.5 50.085C31.4647 50.085 33.3764 49.8587 35.2146 49.443V52.3957C35.2146 53.2798 35.9446 53.9966 36.8448 53.9966C37.745 53.9966 38.4756 53.2798 38.4756 52.3957V48.4789C48.1203 44.9049 55 35.7508 55 25.0432C55 11.2345 43.5609 0 29.5 0ZM29.5 47.6521C27.8917 47.6521 26.3211 47.4875 24.8049 47.1779L24.7214 45.452C26.2582 45.8013 27.8559 45.9926 29.5 45.9926C31.4799 45.9926 33.3956 45.7187 35.2146 45.2178V46.9476C33.3863 47.4068 31.472 47.6521 29.5 47.6521ZM24.0418 31.4326C26.1171 30.7723 27.8765 28.3133 27.7791 27.0578L25.9462 13.8789C25.9455 13.7807 25.8581 13.7007 25.7508 13.7007C25.6422 13.7007 25.5554 13.7807 25.5541 13.8789L25.7554 24.6808C25.7554 24.8962 25.564 25.0718 25.3275 25.0718C25.091 25.0718 24.8989 24.8962 24.8989 24.6808L24.1723 13.8789C24.1656 13.7995 24.0961 13.7364 24.008 13.7364C23.9199 13.7364 23.8497 13.7995 23.8437 13.8789L23.4496 24.6815C23.4496 24.8968 23.2568 25.0724 23.021 25.0724C22.7852 25.0724 22.5931 24.8968 22.5931 24.6815L22.197 13.8796C22.1917 13.8002 22.1221 13.7371 22.0334 13.7371C21.9453 13.7371 21.875 13.8002 21.8684 13.8796L21.1418 24.6815C21.1418 24.8968 20.9503 25.0724 20.7138 25.0724C20.4774 25.0724 20.2853 24.8968 20.2853 24.6815L20.4866 13.8796C20.4866 13.7813 20.3985 13.7013 20.2912 13.7013C20.1826 13.7013 20.0958 13.7813 20.0952 13.8796L18.2623 27.0585C18.1656 28.314 19.9236 30.773 22.0002 31.4333L21.4385 43.0074C14.4892 39.9649 9.63046 33.1207 9.63046 25.1785C9.63046 14.4188 18.5438 5.6654 29.5 5.6654C40.4562 5.6654 49.3696 14.4182 49.3696 25.1778C49.3696 32.7668 44.9328 39.3527 38.4756 42.578V38.1863V28.2541V13.8867C31.1315 13.8867 30.3605 38.1863 30.3605 38.1863H35.2146V43.8647C33.4036 44.3995 31.4859 44.6909 29.5 44.6909C27.8301 44.6909 26.2072 44.4853 24.6558 44.1015L24.0418 31.4326ZM38.4756 45.8625V44.0274C45.6872 40.7026 50.6944 33.5052 50.6944 25.1778C50.6944 13.7007 41.1862 4.36371 29.5 4.36371C17.8138 4.36371 8.30564 13.7007 8.30564 25.1778C8.30564 33.8278 13.7076 41.26 21.3716 44.3975L21.2862 46.1591C12.6371 42.9039 6.47806 34.669 6.47806 25.0425C6.47806 12.5766 16.8063 2.43295 29.5007 2.43295C42.195 2.43295 52.5226 12.5766 52.5226 25.0425C52.5226 34.3847 46.7239 42.4199 38.4756 45.8625Z" fill="#645CFF"/>
</g>
<g filter="url(#filter1_d)">
<path d="M71.0001 28.5075V25.7933C71.2194 24.4362 71.5347 23.3328 71.9459 22.4829C72.9055 20.1252 74.194 18.3981 75.8115 17.3015C77.429 16.2049 78.7723 15.6566 79.8416 15.6566C80.6366 15.6566 81.4865 15.917 82.3912 16.4379L80.8902 18.864C79.6154 18.398 78.3509 18.7749 77.0966 19.9949C75.8424 21.2149 74.9754 22.5445 74.4955 23.9837C74.1391 25.2585 73.9609 27.6505 73.9609 31.1596V38.7878H71V28.5072L71.0001 28.5075ZM103.076 30.8104L105.502 32.1058C104.721 33.6822 103.802 34.9501 102.747 35.9096C101.691 36.8692 100.506 37.5991 99.1897 38.0993C97.8737 38.5996 96.3864 38.8498 94.728 38.8498C91.0543 38.8498 88.1826 37.647 86.1128 35.2413C84.0429 32.8356 83.008 30.1181 83.008 27.0887C83.008 24.2238 83.8853 21.6742 85.6399 19.4399C87.8605 16.5887 90.8419 15.1631 94.584 15.1631C98.4085 15.1631 101.472 16.623 103.775 19.5427C105.406 21.5988 106.229 24.1621 106.242 27.2326H85.9895C86.0443 29.8645 86.8805 32.02 88.498 33.6992C90.1155 35.3783 92.1099 36.2179 94.4813 36.2179C95.6328 36.2179 96.7499 36.0158 97.8328 35.6114C98.9157 35.207 99.8376 34.6758 100.598 34.0179C101.359 33.3599 102.185 32.2907 103.076 30.8104L103.076 30.8104ZM103.076 24.7448C102.692 23.1958 102.13 21.9587 101.39 21.0334C100.65 20.1082 99.6696 19.3611 98.4496 18.7922C97.2296 18.2232 95.948 17.9388 94.6046 17.9389C92.3977 17.9389 90.4992 18.6517 88.9091 20.0773C87.7577 21.119 86.8873 22.6748 86.2978 24.7447H103.076L103.076 24.7448ZM133.999 33.7095C133.999 36.8759 133.718 39.1925 133.156 40.6592C132.402 42.729 131.083 44.3225 129.198 45.4397C127.313 46.5569 125.055 47.1154 122.423 47.1154C120.476 47.1154 118.736 46.8413 117.2 46.293C115.665 45.7447 114.411 45.0114 113.438 44.093C112.464 43.1746 111.573 41.8312 110.765 40.0629H113.911C114.774 41.557 115.881 42.6605 117.231 43.3733C118.581 44.086 120.264 44.4424 122.279 44.4424C124.253 44.4424 125.922 44.0723 127.286 43.3321C128.65 42.5919 129.619 41.6666 130.195 40.5563C130.771 39.4459 131.059 37.6433 131.059 35.1486V33.9971C129.976 35.3816 128.643 36.4439 127.059 37.1841C125.476 37.9243 123.807 38.2944 122.053 38.2944C119.983 38.2944 118.033 37.7804 116.203 36.7523C114.373 35.7243 112.961 34.3364 111.968 32.5887C110.974 30.8411 110.477 28.9254 110.477 26.8418C110.477 24.7582 110.994 22.8151 112.029 21.0126C113.064 19.2101 114.5 17.7844 116.337 16.7357C118.174 15.687 120.1 15.1627 122.115 15.1628C123.814 15.1628 125.356 15.4232 126.741 15.9441C127.906 16.3691 129.284 17.1847 130.874 18.3909C132.217 19.5012 133.272 21.6191 134.04 24.7444C134.013 25.1556 133.999 28.1438 133.999 33.7091L133.999 33.7095ZM122.486 17.959C120.841 17.959 119.316 18.3565 117.911 19.1516C116.506 19.9466 115.402 21.0432 114.6 22.4414C113.798 23.8396 113.397 25.3542 113.397 26.9854C113.397 29.4665 114.227 31.5158 115.885 33.1333C117.544 34.7507 119.689 35.5595 122.321 35.5594C125.008 35.5594 127.16 34.7575 128.777 33.1537C130.395 31.5499 131.203 29.439 131.203 26.8209C131.203 25.1211 130.83 23.6065 130.083 22.2768C129.336 20.9472 128.28 19.8951 126.916 19.1207C125.552 18.3463 124.075 17.959 122.485 17.959L122.486 17.959ZM141.176 7C141.834 7 142.399 7.23303 142.872 7.69908C143.345 8.16514 143.581 8.72715 143.581 9.38511C143.581 10.0431 143.345 10.6085 142.872 11.0814C142.399 11.5543 141.834 11.7908 141.176 11.7908C140.518 11.7908 139.956 11.5543 139.49 11.0814C139.024 10.6085 138.791 10.0431 138.791 9.38511C138.791 8.72715 139.024 8.16514 139.49 7.69908C139.956 7.23303 140.518 7 141.176 7L141.176 7ZM139.736 16.2725H142.636V38.8285H139.736V16.2725V16.2725ZM148.619 30.2759L148.578 27.8701C148.537 26.6913 148.585 25.6906 148.722 24.8682C149.023 22.2775 149.681 20.379 150.696 19.1727C151.683 18.1172 152.69 17.3016 153.718 16.7259C155.418 15.9994 157.357 15.6567 159.537 15.6978C161.237 15.6978 162.81 16.1262 164.256 16.9829C165.702 17.8396 166.733 18.9911 167.35 20.4372C167.967 21.8833 168.275 24.1484 168.275 27.2326V38.8292H165.397V28.0756C165.397 25.4712 165.287 23.7303 165.068 22.8531C164.725 21.3589 164.047 20.3 163.032 19.6763C162.018 19.0526 160.517 18.7408 158.529 18.7408C156.775 18.7408 155.212 19.248 153.841 20.2623C152.471 21.2767 151.833 22.6612 151.929 24.4158C151.669 25.5398 151.538 27.5891 151.538 30.5636V38.8293H148.619V30.2758L148.619 30.2759ZM185.115 15.1629C188.583 15.1629 191.462 16.4172 193.751 18.9257C195.862 21.2148 196.918 23.9358 196.918 27.0885C196.945 34.8744 196.945 38.829 196.918 38.9524H193.854V33.8327C192.25 36.8209 189.337 38.4933 185.115 38.8497C181.661 38.8497 178.841 37.6742 176.654 35.3234C174.468 32.9726 173.375 30.2276 173.375 27.0887C173.375 23.9633 174.41 21.2492 176.48 18.9464C178.769 16.4242 181.647 15.1631 185.115 15.1631L185.115 15.1629ZM185.115 18.0011C182.717 18.0011 180.654 18.8921 178.926 20.6741C177.199 22.4561 176.336 24.6082 176.336 27.1303C176.336 28.7615 176.778 30.331 177.662 31.8389C178.546 33.3467 180.043 34.6215 182.154 35.6633C187.446 36.8421 191.208 34.4364 193.443 28.4462C193.566 26.5272 193.36 24.6904 192.826 22.9358C192.442 22.1408 191.914 21.3869 191.243 20.6741C189.557 18.8921 187.514 18.0011 185.115 18.0011L185.115 18.0011ZM223.401 34.4498C224.635 32.3936 225.375 30.3718 225.622 28.3842C225.622 14.1146 225.622 6.99355 225.622 7.02096H222.743V19.6046C221.524 18.1104 220.16 16.9967 218.652 16.2634C217.144 15.53 215.492 15.1633 213.697 15.1633C210.516 15.1633 207.795 16.3216 205.534 18.6382C203.272 20.9548 202.141 23.7648 202.141 27.0683C202.141 30.317 203.279 33.0928 205.554 35.3956C207.83 37.6985 210.571 38.8499 213.779 38.8499C215.616 38.8499 217.339 38.4969 218.95 37.791C220.561 37.085 222.045 35.9713 223.402 34.4498L223.401 34.4498ZM214.024 36.0741C212.393 36.0741 210.896 35.6732 209.532 34.8713C208.168 34.0694 207.082 32.9557 206.273 31.5301C205.464 30.1045 205.06 28.583 205.06 26.9654C205.06 25.3754 205.467 23.8504 206.283 22.3905C207.099 20.9307 208.195 19.7998 209.573 18.998C210.95 18.1961 212.421 17.7952 213.983 17.7951C215.573 17.7951 217.081 18.1961 218.507 18.998C219.932 19.7999 221.029 20.8896 221.797 22.2672C222.564 23.6447 222.948 25.1834 222.948 26.8832C222.948 29.5014 222.084 31.6877 220.357 33.4423C218.63 35.1968 216.519 36.0741 214.024 36.0741L214.024 36.0741ZM242.214 15.1629C245.682 15.1629 248.561 16.4172 250.85 18.9257C252.961 21.2148 254.016 23.9358 254.016 27.0885C254.044 34.8744 254.044 38.829 254.016 38.9524H250.953V33.8327C249.349 36.8209 246.436 38.4933 242.214 38.8497C238.76 38.8497 235.939 37.6742 233.753 35.3234C231.567 32.9726 230.474 30.2276 230.474 27.0887C230.474 23.9633 231.509 21.2492 233.578 18.9464C235.868 16.4242 238.746 15.1631 242.214 15.1631V15.1629ZM242.214 18.0011C239.815 18.0011 237.752 18.8921 236.025 20.6741C234.298 22.4561 233.434 24.6082 233.434 27.1303C233.434 28.7615 233.876 30.331 234.761 31.8389C235.645 33.3467 237.142 34.6215 239.253 35.6633C244.544 36.8421 248.307 34.4364 250.541 28.4462C250.665 26.5272 250.459 24.6904 249.925 22.9358C249.541 22.1408 249.013 21.3869 248.341 20.6741C246.655 18.8921 244.613 18.0011 242.214 18.0011L242.214 18.0011ZM270.979 18.2054L269.129 20.1381C267.566 18.6303 266.052 17.8764 264.585 17.8764C263.639 17.8764 262.83 18.1848 262.159 18.8016C261.487 19.4185 261.151 20.1518 261.151 21.0017C261.151 21.7144 261.432 22.3998 261.994 23.0578C262.542 23.7569 263.701 24.5588 265.469 25.4635C267.635 26.5738 269.102 27.6498 269.869 28.6916C270.623 29.7471 271 30.9328 271 32.2487C271 34.0855 270.352 35.6447 269.057 36.9264C267.762 38.208 266.141 38.8489 264.194 38.8489C262.892 38.8489 261.648 38.5713 260.462 38.0161C259.277 37.461 258.3 36.6831 257.532 35.6824L259.362 33.6057C260.843 35.2781 262.412 36.1142 264.071 36.1142C265.222 36.1142 266.206 35.7407 267.021 34.9936C267.837 34.2466 268.245 33.3727 268.245 32.3721C268.245 31.5359 267.977 30.7957 267.443 30.1515C266.908 29.5072 265.695 28.6985 263.804 27.7253C261.761 26.6973 260.377 25.6623 259.65 24.6206C258.91 23.6062 258.54 22.4411 258.54 21.1251C258.54 19.4117 259.126 17.9895 260.298 16.8587C261.47 15.7278 262.94 15.1624 264.708 15.1624C266.778 15.1624 268.868 16.1767 270.979 18.2055L270.979 18.2054Z" fill="#111111"/>
</g>
<defs>
<filter id="filter0_d" x="0" y="0" width="59" height="62.184" filterUnits="userSpaceOnUse" color-interpolation-filters="sRGB">
<feFlood flood-opacity="0" result="BackgroundImageFix"/>
<feColorMatrix in="SourceAlpha" type="matrix" values="0 0 0 0 0 0 0 0 0 0 0 0 0 0 0 0 0 0 127 0" result="hardAlpha"/>
<feOffset dy="4"/>
<feGaussianBlur stdDeviation="2"/>
<feComposite in2="hardAlpha" operator="out"/>
<feColorMatrix type="matrix" values="0 0 0 0 0 0 0 0 0 0 0 0 0 0 0 0 0 0 0.25 0"/>
<feBlend mode="normal" in2="BackgroundImageFix" result="effect1_dropShadow"/>
<feBlend mode="normal" in="SourceGraphic" in2="effect1_dropShadow" result="shape"/>
</filter>
<filter id="filter1_d" x="67" y="7" width="208" height="48.1154" filterUnits="userSpaceOnUse" color-interpolation-filters="sRGB">
<feFlood flood-opacity="0" result="BackgroundImageFix"/>
<feColorMatrix in="SourceAlpha" type="matrix" values="0 0 0 0 0 0 0 0 0 0 0 0 0 0 0 0 0 0 127 0" result="hardAlpha"/>
<feOffset dy="4"/>
<feGaussianBlur stdDeviation="2"/>
<feComposite in2="hardAlpha" operator="out"/>
<feColorMatrix type="matrix" values="0 0 0 0 0 0 0 0 0 0 0 0 0 0 0 0 0 0 0.25 0"/>
<feBlend mode="normal" in2="BackgroundImageFix" result="effect1_dropShadow"/>
<feBlend mode="normal" in="SourceGraphic" in2="effect1_dropShadow" result="shape"/>
</filter>
</defs>
</svg>
